<svg width="1024" height="1024" viewBox="0 0 1024 1024" fill="none" xmlns="http://www.w3.org/2000/svg">
  <defs>
    <linearGradient id="outerGlow" x1="512" y1="64" x2="512" y2="960" gradientUnits="userSpaceOnUse">
      <stop stop-color="#EAF6D8"/>
      <stop offset="1" stop-color="#D6EFB4"/>
    </linearGradient>
    <linearGradient id="outerRing" x1="512" y1="128" x2="512" y2="896" gradientUnits="userSpaceOnUse">
      <stop stop-color="#C8E98B"/>
      <stop offset="1" stop-color="#98D25D"/>
    </linearGradient>
    <linearGradient id="creeperTile" x1="512" y1="252" x2="512" y2="772" gradientUnits="userSpaceOnUse">
      <stop stop-color="#66BB6A"/>
      <stop offset="1" stop-color="#2E7D32"/>
    </linearGradient>
  </defs>

  <circle cx="512" cy="512" r="448" fill="url(#outerGlow)"/>
  <circle cx="512" cy="512" r="400" fill="url(#outerRing)"/>
  <circle cx="512" cy="512" r="372" fill="#D9F0B7"/>

  <rect x="252" y="252" width="520" height="520" rx="132" fill="url(#creeperTile)"/>
  <rect x="252" y="252" width="520" height="200" rx="132" fill="white" fill-opacity="0.08"/>

  <rect x="344" y="374" width="112" height="112" rx="18" fill="#1A3E1C"/>
  <rect x="372" y="398" width="32" height="32" rx="6" fill="white" fill-opacity="0.12"/>

  <rect x="568" y="374" width="112" height="112" rx="18" fill="#1A3E1C"/>
  <rect x="596" y="398" width="32" height="32" rx="6" fill="white" fill-opacity="0.12"/>

  <rect x="420" y="548" width="184" height="86" rx="18" fill="#1A3E1C"/>
  <rect x="344" y="628" width="104" height="112" rx="18" fill="#1A3E1C"/>
  <rect x="576" y="628" width="104" height="112" rx="18" fill="#1A3E1C"/>
</svg>
